<?xml version="1.0" encoding="UTF-8"?>
<svg id="Layer_2" data-name="Layer 2" xmlns="http://www.w3.org/2000/svg" viewBox="0 0 402.23 402.23">
  <defs>
    <style>
      .cls-1 {
        fill: #fff;
      }

      .cls-2 {
        fill: #0f172a;
      }
    </style>
  </defs>
  <g id="Layer_1-2" data-name="Layer 1">
    <rect class="cls-2" width="402.23" height="402.23" rx="10" ry="10"/>
  </g>
  <g id="Layer_2-2" data-name="Layer 2">
    <g>
      <path class="cls-1" d="M87.72,347.94h79.72v-96.93h27.59l51.56,96.93h86.61l-59.65-109.51c13.63-6.55,24.66-15.56,33.07-27.06H87.72v136.57Z"/>
      <path class="cls-1" d="M323.45,154.08c0-20.84-4.54-38.71-13.62-53.63-9.08-14.91-21.79-26.34-38.14-34.27-16.35-7.93-35.42-11.9-57.21-11.9h-126.75v137.81h229.32c4.24-11.18,6.41-23.83,6.41-38.02ZM234.91,174.3c-3.58,5.16-8.7,8.91-15.34,11.26-6.64,2.34-14.65,3.51-24.02,3.51h-28.1v-71.12h28.1c9.37,0,17.37,1.27,24.02,3.8,6.64,2.53,11.76,6.45,15.34,11.76,3.58,5.31,5.38,12.16,5.38,20.58s-1.79,15.06-5.38,20.22Z"/>
    </g>
  </g>
</svg>