<?xml version="1.0" encoding="UTF-8"?>
<svg id="Layer_2" data-name="Layer 2" xmlns="http://www.w3.org/2000/svg" viewBox="0 0 1185.46 119.55">
  <defs>
    <style>
      .cls-1 {
        fill: #06b6d4;
      }

      .cls-2 {
        fill: none;
      }

      .cls-3 {
        fill: #0f172a;
      }
    </style>
  </defs>
  <g id="Layer_1-2" data-name="Layer 1">
    <g>
      <g>
        <path class="cls-2" d="M475.25,77.42c1.84,4.79,4.55,8.43,8.12,10.91,3.58,2.48,7.98,3.72,13.21,3.72s9.63-1.24,13.21-3.72c3.58-2.48,6.29-6.12,8.12-10.91,1.47-3.83,2.34-8.36,2.63-13.58h-47.94c.3,5.22,1.17,9.75,2.63,13.58Z"/>
        <path class="cls-2" d="M509.79,31.22c-3.58-2.48-7.98-3.72-13.21-3.72s-9.63,1.24-13.21,3.72c-3.58,2.48-6.29,6.12-8.12,10.91-1.51,3.95-2.39,8.65-2.66,14.07h47.99c-.27-5.42-1.15-10.12-2.66-14.07-1.84-4.79-4.55-8.43-8.12-10.91Z"/>
        <path class="cls-2" d="M347.98,77.42c1.84,4.79,4.55,8.43,8.12,10.91,3.58,2.48,7.98,3.72,13.21,3.72s9.63-1.24,13.21-3.72c3.58-2.48,6.29-6.12,8.12-10.91,1.47-3.83,2.34-8.36,2.63-13.58h-47.94c.3,5.22,1.17,9.75,2.63,13.58Z"/>
        <path class="cls-2" d="M52.24,28.32c-2.63-1-5.81-1.51-9.52-1.51h-11.14v28.18h11.14c3.71,0,6.88-.46,9.52-1.39,2.63-.93,4.66-2.42,6.08-4.46,1.42-2.05,2.13-4.72,2.13-8.01s-.71-6.05-2.13-8.15-3.45-3.66-6.08-4.66Z"/>
        <path class="cls-2" d="M252.72,92.73c5.3,0,9.28-.99,11.93-2.98,2.65-1.99,3.98-4.93,3.98-8.83,0-2.73-.62-5.04-1.88-6.93-1.25-1.89-3.02-3.33-5.31-4.32-2.29-.98-5.05-1.48-8.27-1.48h-15.23v24.55h14.77Z"/>
        <path class="cls-2" d="M382.52,31.22c-3.58-2.48-7.98-3.72-13.21-3.72s-9.63,1.24-13.21,3.72c-3.58,2.48-6.29,6.12-8.12,10.91-1.51,3.95-2.39,8.65-2.66,14.07h47.99c-.27-5.42-1.15-10.12-2.66-14.07-1.84-4.79-4.55-8.43-8.12-10.91Z"/>
        <path class="cls-2" d="M261.13,29.23c-2.58-1.91-5.83-2.87-9.77-2.87h-13.41v22.27h12.95c2.76,0,5.21-.44,7.33-1.31,2.12-.87,3.78-2.13,4.97-3.78,1.19-1.65,1.79-3.67,1.79-6.05,0-3.6-1.29-6.35-3.86-8.27Z"/>
        <path class="cls-3" d="M0,117.96h31.59v-38.41h10.93l20.43,38.41h34.32l-23.64-43.4c5.4-2.6,9.77-6.17,13.1-10.72H0v54.12Z"/>
        <path class="cls-3" d="M93.41,41.14c0-8.26-1.8-15.34-5.4-21.25-3.6-5.91-8.64-10.44-15.11-13.58-6.48-3.14-14.03-4.72-22.67-4.72H0v54.61h90.87c1.68-4.43,2.54-9.44,2.54-15.06ZM58.32,49.15c-1.42,2.04-3.45,3.53-6.08,4.46-2.63.93-5.81,1.39-9.52,1.39h-11.14v-28.18h11.14c3.71,0,6.88.5,9.52,1.51,2.63,1,4.66,2.56,6.08,4.66s2.13,4.82,2.13,8.15-.71,5.97-2.13,8.01Z"/>
        <polygon class="cls-3" points="186.36 47.05 138.41 47.05 138.41 27.05 190.68 27.05 190.68 1.59 106.82 1.59 106.82 56.2 186.36 56.2 186.36 47.05"/>
        <polygon class="cls-3" points="106.82 117.96 190.45 117.96 190.45 92.5 138.41 92.5 138.41 72.5 186.36 72.5 186.36 63.84 106.82 63.84 106.82 117.96"/>
        <path class="cls-3" d="M206.36,117.96h54.77c8.45,0,15.72-1.42,21.82-4.26,6.1-2.84,10.8-6.74,14.12-11.7,3.31-4.96,4.97-10.62,4.97-16.99,0-5.49-1.21-10.27-3.64-14.35-1.57-2.64-3.5-4.91-5.77-6.82h-86.27v54.12ZM253.18,68.18c3.22,0,5.97.49,8.27,1.48,2.29.99,4.06,2.42,5.31,4.32,1.25,1.89,1.88,4.2,1.88,6.93,0,3.9-1.33,6.85-3.98,8.83-2.65,1.99-6.63,2.98-11.93,2.98h-14.77v-24.55h15.23Z"/>
        <path class="cls-3" d="M275,56.14c4.51-.91,8.45-2.55,11.82-4.92,3.37-2.37,5.99-5.31,7.87-8.83s2.81-7.42,2.81-11.71c0-5.91-1.54-11.04-4.63-15.4-3.09-4.36-7.65-7.73-13.69-10.11-6.04-2.39-13.49-3.58-22.36-3.58h-50.45v54.61h68.64v-.06ZM258.23,47.33c-2.12.87-4.56,1.31-7.33,1.31h-12.95v-22.27h13.41c3.94,0,7.2.96,9.77,2.87,2.58,1.91,3.86,4.67,3.86,8.27,0,2.39-.6,4.4-1.79,6.05-1.19,1.65-2.85,2.91-4.97,3.78Z"/>
        <path class="cls-3" d="M390.65,77.42c-1.84,4.79-4.55,8.43-8.12,10.91-3.58,2.48-7.98,3.72-13.21,3.72s-9.63-1.24-13.21-3.72c-3.58-2.48-6.29-6.12-8.12-10.91-1.47-3.83-2.34-8.36-2.63-13.58h-32.53c.48,11.12,2.95,20.65,7.44,28.58,5.02,8.88,11.8,15.62,20.34,20.23,8.54,4.6,18.12,6.9,28.72,6.9s20.08-2.28,28.64-6.85c8.56-4.56,15.36-11.29,20.4-20.17,4.5-7.94,6.99-17.5,7.46-28.69h-32.53c-.3,5.22-1.17,9.75-2.63,13.58Z"/>
        <path class="cls-3" d="M347.98,42.13c1.84-4.79,4.55-8.43,8.12-10.91,3.58-2.48,7.98-3.72,13.21-3.72s9.63,1.24,13.21,3.72c3.58,2.48,6.29,6.12,8.12,10.91,1.51,3.95,2.39,8.65,2.66,14.07h32.52c-.43-11.4-2.92-21.13-7.48-29.18-5.04-8.88-11.84-15.61-20.4-20.17-8.56-4.56-18.11-6.85-28.64-6.85s-20.18,2.28-28.72,6.85c-8.54,4.57-15.32,11.29-20.34,20.17-4.55,8.05-7.03,17.78-7.46,29.18h32.52c.27-5.42,1.15-10.12,2.66-14.07Z"/>
        <path class="cls-3" d="M517.92,77.42c-1.84,4.79-4.55,8.43-8.12,10.91-3.58,2.48-7.98,3.72-13.21,3.72s-9.63-1.24-13.21-3.72c-3.58-2.48-6.29-6.12-8.12-10.91-1.47-3.83-2.34-8.36-2.63-13.58h-32.53c.48,11.12,2.95,20.65,7.44,28.58,5.02,8.88,11.8,15.62,20.34,20.23,8.54,4.6,18.12,6.9,28.72,6.9s20.08-2.28,28.64-6.85c8.56-4.56,15.36-11.29,20.4-20.17,4.5-7.94,6.99-17.5,7.46-28.69h-32.53c-.3,5.22-1.17,9.75-2.63,13.58Z"/>
        <path class="cls-3" d="M475.25,42.13c1.84-4.79,4.55-8.43,8.12-10.91,3.58-2.48,7.98-3.72,13.21-3.72s9.63,1.24,13.21,3.72c3.58,2.48,6.29,6.12,8.12,10.91,1.51,3.95,2.39,8.65,2.66,14.07h32.52c-.43-11.4-2.92-21.13-7.48-29.18-5.04-8.88-11.84-15.61-20.4-20.17-8.56-4.56-18.11-6.85-28.64-6.85s-20.18,2.28-28.72,6.85c-8.54,4.57-15.32,11.29-20.34,20.17-4.55,8.05-7.03,17.78-7.46,29.18h32.52c.27-5.42,1.15-10.12,2.66-14.07Z"/>
        <polygon class="cls-3" points="665.67 27.05 665.67 1.59 564.54 1.59 564.54 27.05 599.54 27.05 599.54 56.2 630.67 56.2 630.67 27.05 665.67 27.05"/>
        <rect class="cls-3" x="599.54" y="63.84" width="31.14" height="54.12"/>
      </g>
      <g>
        <path class="cls-1" d="M881.15,1.59l-41.88,116.36h18.64l10.66-30.8h45.46l10.64,30.8h18.64L901.43,1.59h-20.28ZM873.68,72.39l17.18-49.66h.91l17.16,49.66h-35.25Z"/>
        <polygon class="cls-1" points="1019.78 92.05 1018.42 92.05 981.37 1.59 960.06 1.59 960.06 117.96 976.77 117.96 976.77 33.69 977.85 33.69 1012.17 117.78 1026.03 117.78 1060.35 33.75 1061.43 33.75 1061.43 117.96 1078.13 117.96 1078.13 1.59 1056.83 1.59 1019.78 92.05"/>
        <path class="cls-1" d="M1181.03,20.03c-2.95-5.7-7.41-10.2-13.35-13.49-5.95-3.29-13.45-4.94-22.5-4.94h-41.48v116.36h17.56v-40.91h23.86c9.01,0,16.51-1.66,22.47-4.97,5.97-3.31,10.44-7.82,13.41-13.52,2.97-5.7,4.46-12.13,4.46-19.29s-1.48-13.53-4.43-19.23ZM1165.29,51.02c-1.67,3.45-4.28,6.16-7.84,8.15-3.56,1.99-8.2,2.98-13.92,2.98h-22.27V16.65h22.05c5.83,0,10.54.97,14.12,2.9s6.2,4.6,7.87,8.01c1.67,3.41,2.5,7.31,2.5,11.71s-.83,8.31-2.5,11.76Z"/>
        <path class="cls-1" d="M818.59,64.2l19.82-27.59h-11.88c-1.07-5.11-2.78-9.73-5.16-13.85-2.8-4.87-6.35-9-10.62-12.39-4.28-3.39-9.1-5.97-14.46-7.73-5.36-1.76-11.13-2.64-17.3-2.64-10.04,0-19,2.4-26.87,7.19-7.88,4.79-14.09,11.65-18.64,20.57-4.55,8.92-6.82,19.59-6.82,32.02s2.26,23.05,6.79,31.99c4.53,8.94,10.73,15.8,18.61,20.6,7.88,4.79,16.86,7.19,26.93,7.19,6.4,0,12.31-.95,17.73-2.84s10.24-4.57,14.46-8.04,7.69-7.59,10.4-12.39c2.71-4.79,4.54-10.05,5.48-15.77l-17.73-.06c-.72,3.71-2.02,7-3.89,9.86-1.88,2.86-4.16,5.28-6.85,7.24-2.69,1.97-5.69,3.46-9,4.46-3.32,1-6.81,1.51-10.48,1.51-6.63,0-12.59-1.67-17.9-5-5.3-3.33-9.48-8.26-12.53-14.77-3.05-6.51-4.57-14.51-4.57-23.98s1.52-17.35,4.57-23.86c3.05-6.51,7.22-11.46,12.5-14.83s11.28-5.06,17.98-5.06c3.71,0,7.22.51,10.54,1.53,3.31,1.02,6.32,2.54,9.01,4.55,2.69,2.01,4.96,4.45,6.82,7.33,1.38,2.14,2.43,4.53,3.16,7.17h-9.91l19.82,27.59Z"/>
      </g>
    </g>
  </g>
</svg>